<?xml version="1.0" encoding="UTF-8" standalone="no"?>
<!-- Created with Inkscape (http://www.inkscape.org/) -->

<svg
   xmlns:dc="http://purl.org/dc/elements/1.1/"
   xmlns:cc="http://creativecommons.org/ns#"
   xmlns:rdf="http://www.w3.org/1999/02/22-rdf-syntax-ns#"
   xmlns:svg="http://www.w3.org/2000/svg"
   xmlns="http://www.w3.org/2000/svg"
   xmlns:sodipodi="http://sodipodi.sourceforge.net/DTD/sodipodi-0.dtd"
   xmlns:inkscape="http://www.inkscape.org/namespaces/inkscape"
   version="1.1"
   id="svg1774"
   xml:space="preserve"
   width="48"
   height="48"
   viewBox="0 0 48 48"
   sodipodi:docname="caption.svg"
   inkscape:version="0.92.2 2405546, 2018-03-11"><metadata
     id="metadata1780"><rdf:RDF><cc:Work
         rdf:about=""><dc:format>image/svg+xml</dc:format><dc:type
           rdf:resource="http://purl.org/dc/dcmitype/StillImage" /><dc:title></dc:title></cc:Work></rdf:RDF></metadata><defs
     id="defs1778" /><sodipodi:namedview
     pagecolor="#ffffff"
     bordercolor="#666666"
     borderopacity="1"
     objecttolerance="10"
     gridtolerance="10"
     guidetolerance="10"
     inkscape:pageopacity="0"
     inkscape:pageshadow="2"
     inkscape:window-width="1659"
     inkscape:window-height="1050"
     id="namedview1776"
     showgrid="false"
     inkscape:zoom="9.1041667"
     inkscape:cx="7.0780587"
     inkscape:cy="39.378082"
     inkscape:window-x="0"
     inkscape:window-y="23"
     inkscape:window-maximized="0"
     inkscape:current-layer="g1782" /><g
     id="g1782"
     inkscape:groupmode="layer"
     inkscape:label="caption"
     transform="matrix(1.3333333,0,0,-1.3333333,0,48)"><g
       id="g1784"
       transform="matrix(0.92291858,0,0,0.89486948,1.3860903,1.8923498)"
       style="stroke-width:1.10036933"><path
         d="M 10.137,5.621 V 8.328 L 8.254,8.332 C 6.711,8.332 6.289,8.355 5.91,8.457 4.734,8.762 3.762,9.758 3.496,10.93 3.336,11.641 3.332,29.777 3.492,30.457 c 0.153,0.645 0.418,1.117 0.906,1.605 0.489,0.489 0.961,0.758 1.606,0.907 0.664,0.156 23.351,0.156 24.016,0 1.207,-0.281 2.175,-1.227 2.488,-2.418 0.109,-0.426 0.121,-1.203 0.121,-9.848 0,-8.648 -0.012,-9.426 -0.121,-9.851 C 32.285,9.996 31.727,9.273 30.926,8.793 30.145,8.324 30.18,8.328 23.957,8.328 h -5.59 L 14.297,5.621 C 12.059,4.129 10.207,2.914 10.18,2.914 c -0.024,0 -0.043,1.215 -0.043,2.707 z m 5.078,3.32 2.437,1.633 6.008,0.02 c 5.949,0.019 6.016,0.019 6.207,0.164 0.106,0.082 0.258,0.234 0.34,0.34 0.145,0.195 0.145,0.211 0.145,9.605 0,9.395 0,9.414 -0.145,9.606 -0.082,0.109 -0.234,0.261 -0.34,0.339 l -0.195,0.145 H 6.348 L 6.156,30.648 C 6.047,30.57 5.895,30.418 5.816,30.309 5.672,30.117 5.672,30.102 5.672,20.703 c 0,-9.394 0,-9.41 0.144,-9.605 0.079,-0.106 0.231,-0.258 0.34,-0.34 0.188,-0.141 0.289,-0.145 3.211,-0.164 l 3.02,-0.02 V 7.051 l 0.195,0.129 c 0.109,0.07 1.293,0.863 2.633,1.761 z"
         style="fill:#000000;fill-opacity:1;fill-rule:nonzero;stroke:none;stroke-width:1.10036933"
         id="path1786"
         inkscape:connector-curvature="0" /></g></g></svg>